<mxfile host="app.diagrams.net" modified="2024-04-23T20:24:52.723Z" agent="Mozilla/5.0 (X11; Linux x86_64) AppleWebKit/537.36 (KHTML, like Gecko) Chrome/122.0.0.0 Safari/537.36" etag="F4n-E9walfOSf68UJ1Ko" version="24.2.8" type="device">
  <diagram id="C5RBs43oDa-KdzZeNtuy" name="Page-1">
    <mxGraphModel dx="1434" dy="842" grid="1" gridSize="10" guides="1" tooltips="1" connect="1" arrows="1" fold="1" page="1" pageScale="1" pageWidth="827" pageHeight="1169" math="0" shadow="0">
      <root>
        <mxCell id="WIyWlLk6GJQsqaUBKTNV-0" />
        <mxCell id="WIyWlLk6GJQsqaUBKTNV-1" parent="WIyWlLk6GJQsqaUBKTNV-0" />
        <mxCell id="SAYkbnVVBiaTuml78bCv-111" style="edgeStyle=orthogonalEdgeStyle;rounded=0;orthogonalLoop=1;jettySize=auto;html=1;exitX=0.5;exitY=1;exitDx=0;exitDy=0;entryX=0.75;entryY=0;entryDx=0;entryDy=0;" edge="1" parent="WIyWlLk6GJQsqaUBKTNV-1" source="SAYkbnVVBiaTuml78bCv-68" target="SAYkbnVVBiaTuml78bCv-1">
          <mxGeometry relative="1" as="geometry" />
        </mxCell>
        <mxCell id="SAYkbnVVBiaTuml78bCv-68" value="nome" style="ellipse;whiteSpace=wrap;html=1;align=center;direction=west;flipH=1;flipV=1;" vertex="1" parent="WIyWlLk6GJQsqaUBKTNV-1">
          <mxGeometry x="940" y="1060" width="100" height="40" as="geometry" />
        </mxCell>
        <mxCell id="SAYkbnVVBiaTuml78bCv-100" style="edgeStyle=orthogonalEdgeStyle;rounded=0;orthogonalLoop=1;jettySize=auto;html=1;entryX=0;entryY=0.75;entryDx=0;entryDy=0;" edge="1" parent="WIyWlLk6GJQsqaUBKTNV-1" source="SAYkbnVVBiaTuml78bCv-69" target="SAYkbnVVBiaTuml78bCv-1">
          <mxGeometry relative="1" as="geometry" />
        </mxCell>
        <mxCell id="SAYkbnVVBiaTuml78bCv-69" value="idprestador" style="ellipse;whiteSpace=wrap;html=1;align=center;fontStyle=4;direction=west;flipH=1;flipV=1;" vertex="1" parent="WIyWlLk6GJQsqaUBKTNV-1">
          <mxGeometry x="380" y="1010" width="100" height="40" as="geometry" />
        </mxCell>
        <mxCell id="SAYkbnVVBiaTuml78bCv-105" style="edgeStyle=orthogonalEdgeStyle;rounded=0;orthogonalLoop=1;jettySize=auto;html=1;" edge="1" parent="WIyWlLk6GJQsqaUBKTNV-1" source="SAYkbnVVBiaTuml78bCv-70" target="SAYkbnVVBiaTuml78bCv-1">
          <mxGeometry relative="1" as="geometry" />
        </mxCell>
        <mxCell id="SAYkbnVVBiaTuml78bCv-112" style="edgeStyle=orthogonalEdgeStyle;rounded=0;orthogonalLoop=1;jettySize=auto;html=1;entryX=0.25;entryY=0;entryDx=0;entryDy=0;" edge="1" parent="WIyWlLk6GJQsqaUBKTNV-1" source="SAYkbnVVBiaTuml78bCv-70" target="SAYkbnVVBiaTuml78bCv-1">
          <mxGeometry relative="1" as="geometry" />
        </mxCell>
        <mxCell id="SAYkbnVVBiaTuml78bCv-70" value="endereco" style="ellipse;whiteSpace=wrap;html=1;align=center;direction=west;flipH=1;flipV=1;" vertex="1" parent="WIyWlLk6GJQsqaUBKTNV-1">
          <mxGeometry x="920" y="1010" width="100" height="40" as="geometry" />
        </mxCell>
        <mxCell id="SAYkbnVVBiaTuml78bCv-104" style="edgeStyle=orthogonalEdgeStyle;rounded=0;orthogonalLoop=1;jettySize=auto;html=1;entryX=1;entryY=0.75;entryDx=0;entryDy=0;" edge="1" parent="WIyWlLk6GJQsqaUBKTNV-1" source="SAYkbnVVBiaTuml78bCv-71" target="SAYkbnVVBiaTuml78bCv-1">
          <mxGeometry relative="1" as="geometry" />
        </mxCell>
        <mxCell id="SAYkbnVVBiaTuml78bCv-71" value="bairro" style="ellipse;whiteSpace=wrap;html=1;align=center;direction=west;flipH=1;flipV=1;" vertex="1" parent="WIyWlLk6GJQsqaUBKTNV-1">
          <mxGeometry x="820" y="1010" width="100" height="40" as="geometry" />
        </mxCell>
        <mxCell id="SAYkbnVVBiaTuml78bCv-103" style="edgeStyle=orthogonalEdgeStyle;rounded=0;orthogonalLoop=1;jettySize=auto;html=1;entryX=0.75;entryY=1;entryDx=0;entryDy=0;" edge="1" parent="WIyWlLk6GJQsqaUBKTNV-1" source="SAYkbnVVBiaTuml78bCv-72" target="SAYkbnVVBiaTuml78bCv-1">
          <mxGeometry relative="1" as="geometry" />
        </mxCell>
        <mxCell id="SAYkbnVVBiaTuml78bCv-72" value="complemento" style="ellipse;whiteSpace=wrap;html=1;align=center;direction=west;flipH=1;flipV=1;" vertex="1" parent="WIyWlLk6GJQsqaUBKTNV-1">
          <mxGeometry x="710" y="1010" width="100" height="40" as="geometry" />
        </mxCell>
        <mxCell id="SAYkbnVVBiaTuml78bCv-73" value="cidade" style="ellipse;whiteSpace=wrap;html=1;align=center;direction=west;flipH=1;flipV=1;" vertex="1" parent="WIyWlLk6GJQsqaUBKTNV-1">
          <mxGeometry x="600" y="1010" width="100" height="40" as="geometry" />
        </mxCell>
        <mxCell id="SAYkbnVVBiaTuml78bCv-74" value="telefone" style="ellipse;whiteSpace=wrap;html=1;align=center;direction=west;flipH=1;flipV=1;" vertex="1" parent="WIyWlLk6GJQsqaUBKTNV-1">
          <mxGeometry x="490" y="1010" width="100" height="40" as="geometry" />
        </mxCell>
        <mxCell id="SAYkbnVVBiaTuml78bCv-110" style="edgeStyle=orthogonalEdgeStyle;rounded=0;orthogonalLoop=1;jettySize=auto;html=1;exitX=0.5;exitY=1;exitDx=0;exitDy=0;entryX=1;entryY=1;entryDx=0;entryDy=0;" edge="1" parent="WIyWlLk6GJQsqaUBKTNV-1" source="SAYkbnVVBiaTuml78bCv-75" target="SAYkbnVVBiaTuml78bCv-1">
          <mxGeometry relative="1" as="geometry" />
        </mxCell>
        <mxCell id="SAYkbnVVBiaTuml78bCv-75" value="dtNascimento" style="ellipse;whiteSpace=wrap;html=1;align=center;direction=west;flipH=1;flipV=1;" vertex="1" parent="WIyWlLk6GJQsqaUBKTNV-1">
          <mxGeometry x="840" y="1060" width="100" height="40" as="geometry" />
        </mxCell>
        <mxCell id="SAYkbnVVBiaTuml78bCv-109" style="edgeStyle=orthogonalEdgeStyle;rounded=0;orthogonalLoop=1;jettySize=auto;html=1;exitX=0.5;exitY=1;exitDx=0;exitDy=0;entryX=1;entryY=0.25;entryDx=0;entryDy=0;" edge="1" parent="WIyWlLk6GJQsqaUBKTNV-1" source="SAYkbnVVBiaTuml78bCv-76" target="SAYkbnVVBiaTuml78bCv-1">
          <mxGeometry relative="1" as="geometry" />
        </mxCell>
        <mxCell id="SAYkbnVVBiaTuml78bCv-76" value="cpf" style="ellipse;whiteSpace=wrap;html=1;align=center;direction=west;flipH=1;flipV=1;" vertex="1" parent="WIyWlLk6GJQsqaUBKTNV-1">
          <mxGeometry x="740" y="1060" width="100" height="40" as="geometry" />
        </mxCell>
        <mxCell id="SAYkbnVVBiaTuml78bCv-77" value="login" style="ellipse;whiteSpace=wrap;html=1;align=center;direction=west;flipH=1;flipV=1;" vertex="1" parent="WIyWlLk6GJQsqaUBKTNV-1">
          <mxGeometry x="640" y="1060" width="100" height="40" as="geometry" />
        </mxCell>
        <mxCell id="SAYkbnVVBiaTuml78bCv-106" style="edgeStyle=orthogonalEdgeStyle;rounded=0;orthogonalLoop=1;jettySize=auto;html=1;exitX=0.5;exitY=1;exitDx=0;exitDy=0;entryX=0;entryY=0.75;entryDx=0;entryDy=0;" edge="1" parent="WIyWlLk6GJQsqaUBKTNV-1" source="SAYkbnVVBiaTuml78bCv-79" target="SAYkbnVVBiaTuml78bCv-1">
          <mxGeometry relative="1" as="geometry" />
        </mxCell>
        <mxCell id="SAYkbnVVBiaTuml78bCv-79" value="profissão" style="ellipse;whiteSpace=wrap;html=1;align=center;direction=west;flipH=1;flipV=1;" vertex="1" parent="WIyWlLk6GJQsqaUBKTNV-1">
          <mxGeometry x="440" y="1060" width="100" height="40" as="geometry" />
        </mxCell>
        <mxCell id="SAYkbnVVBiaTuml78bCv-0" value="cliente" style="whiteSpace=wrap;html=1;align=center;" vertex="1" parent="WIyWlLk6GJQsqaUBKTNV-1">
          <mxGeometry x="330" y="345" width="100" height="40" as="geometry" />
        </mxCell>
        <mxCell id="SAYkbnVVBiaTuml78bCv-1" value="prestaddor" style="whiteSpace=wrap;html=1;align=center;" vertex="1" parent="WIyWlLk6GJQsqaUBKTNV-1">
          <mxGeometry x="530" y="910" width="100" height="40" as="geometry" />
        </mxCell>
        <mxCell id="SAYkbnVVBiaTuml78bCv-3" value="procedimento" style="whiteSpace=wrap;html=1;align=center;" vertex="1" parent="WIyWlLk6GJQsqaUBKTNV-1">
          <mxGeometry x="680" y="345" width="100" height="40" as="geometry" />
        </mxCell>
        <mxCell id="SAYkbnVVBiaTuml78bCv-5" value="" style="edgeStyle=entityRelationEdgeStyle;fontSize=12;html=1;endArrow=ERzeroToMany;endFill=1;rounded=0;entryX=0;entryY=0.5;entryDx=0;entryDy=0;exitX=1;exitY=0.5;exitDx=0;exitDy=0;" edge="1" parent="WIyWlLk6GJQsqaUBKTNV-1" source="SAYkbnVVBiaTuml78bCv-0" target="SAYkbnVVBiaTuml78bCv-123">
          <mxGeometry width="100" height="100" relative="1" as="geometry">
            <mxPoint x="420" y="555" as="sourcePoint" />
            <mxPoint x="480" y="365" as="targetPoint" />
          </mxGeometry>
        </mxCell>
        <mxCell id="SAYkbnVVBiaTuml78bCv-6" value="" style="edgeStyle=entityRelationEdgeStyle;fontSize=12;html=1;endArrow=ERoneToMany;rounded=0;entryX=0;entryY=0.5;entryDx=0;entryDy=0;exitX=1;exitY=0.5;exitDx=0;exitDy=0;" edge="1" parent="WIyWlLk6GJQsqaUBKTNV-1" source="SAYkbnVVBiaTuml78bCv-123" target="SAYkbnVVBiaTuml78bCv-3">
          <mxGeometry width="100" height="100" relative="1" as="geometry">
            <mxPoint x="599.9999999999998" y="365" as="sourcePoint" />
            <mxPoint x="670" y="425" as="targetPoint" />
          </mxGeometry>
        </mxCell>
        <mxCell id="SAYkbnVVBiaTuml78bCv-9" value="serviço" style="whiteSpace=wrap;html=1;align=center;" vertex="1" parent="WIyWlLk6GJQsqaUBKTNV-1">
          <mxGeometry x="1040" y="345" width="100" height="40" as="geometry" />
        </mxCell>
        <mxCell id="SAYkbnVVBiaTuml78bCv-26" value="" style="edgeStyle=orthogonalEdgeStyle;rounded=0;orthogonalLoop=1;jettySize=auto;html=1;" edge="1" parent="WIyWlLk6GJQsqaUBKTNV-1" source="SAYkbnVVBiaTuml78bCv-11" target="SAYkbnVVBiaTuml78bCv-0">
          <mxGeometry relative="1" as="geometry" />
        </mxCell>
        <mxCell id="SAYkbnVVBiaTuml78bCv-11" value="nome" style="ellipse;whiteSpace=wrap;html=1;align=center;" vertex="1" parent="WIyWlLk6GJQsqaUBKTNV-1">
          <mxGeometry x="210" y="335" width="100" height="40" as="geometry" />
        </mxCell>
        <mxCell id="SAYkbnVVBiaTuml78bCv-13" style="edgeStyle=orthogonalEdgeStyle;rounded=0;orthogonalLoop=1;jettySize=auto;html=1;entryX=0;entryY=0;entryDx=0;entryDy=0;" edge="1" parent="WIyWlLk6GJQsqaUBKTNV-1" source="SAYkbnVVBiaTuml78bCv-12" target="SAYkbnVVBiaTuml78bCv-0">
          <mxGeometry relative="1" as="geometry" />
        </mxCell>
        <mxCell id="SAYkbnVVBiaTuml78bCv-12" value="idCliente" style="ellipse;whiteSpace=wrap;html=1;align=center;fontStyle=4;" vertex="1" parent="WIyWlLk6GJQsqaUBKTNV-1">
          <mxGeometry x="210" y="275" width="100" height="40" as="geometry" />
        </mxCell>
        <mxCell id="SAYkbnVVBiaTuml78bCv-37" style="edgeStyle=orthogonalEdgeStyle;rounded=0;orthogonalLoop=1;jettySize=auto;html=1;entryX=0;entryY=0;entryDx=0;entryDy=0;" edge="1" parent="WIyWlLk6GJQsqaUBKTNV-1" source="SAYkbnVVBiaTuml78bCv-14" target="SAYkbnVVBiaTuml78bCv-123">
          <mxGeometry relative="1" as="geometry">
            <mxPoint x="510" y="350" as="targetPoint" />
          </mxGeometry>
        </mxCell>
        <mxCell id="SAYkbnVVBiaTuml78bCv-14" value="idCliente" style="ellipse;whiteSpace=wrap;html=1;align=center;fontStyle=4;" vertex="1" parent="WIyWlLk6GJQsqaUBKTNV-1">
          <mxGeometry x="400" y="255" width="100" height="40" as="geometry" />
        </mxCell>
        <mxCell id="SAYkbnVVBiaTuml78bCv-36" style="edgeStyle=orthogonalEdgeStyle;rounded=0;orthogonalLoop=1;jettySize=auto;html=1;entryX=1;entryY=0;entryDx=0;entryDy=0;" edge="1" parent="WIyWlLk6GJQsqaUBKTNV-1" source="SAYkbnVVBiaTuml78bCv-15" target="SAYkbnVVBiaTuml78bCv-123">
          <mxGeometry relative="1" as="geometry">
            <mxPoint x="569.9999999999998" y="350" as="targetPoint" />
          </mxGeometry>
        </mxCell>
        <mxCell id="SAYkbnVVBiaTuml78bCv-15" value="idProcedimento" style="ellipse;whiteSpace=wrap;html=1;align=center;fontStyle=4;" vertex="1" parent="WIyWlLk6GJQsqaUBKTNV-1">
          <mxGeometry x="520" y="255" width="100" height="40" as="geometry" />
        </mxCell>
        <mxCell id="SAYkbnVVBiaTuml78bCv-38" style="edgeStyle=orthogonalEdgeStyle;rounded=0;orthogonalLoop=1;jettySize=auto;html=1;entryX=0;entryY=0.75;entryDx=0;entryDy=0;" edge="1" parent="WIyWlLk6GJQsqaUBKTNV-1" source="SAYkbnVVBiaTuml78bCv-16" target="SAYkbnVVBiaTuml78bCv-3">
          <mxGeometry relative="1" as="geometry" />
        </mxCell>
        <mxCell id="SAYkbnVVBiaTuml78bCv-16" value="idProcedimento" style="ellipse;whiteSpace=wrap;html=1;align=center;fontStyle=4;" vertex="1" parent="WIyWlLk6GJQsqaUBKTNV-1">
          <mxGeometry x="580" y="425" width="100" height="40" as="geometry" />
        </mxCell>
        <mxCell id="SAYkbnVVBiaTuml78bCv-27" style="edgeStyle=orthogonalEdgeStyle;rounded=0;orthogonalLoop=1;jettySize=auto;html=1;entryX=0;entryY=1;entryDx=0;entryDy=0;" edge="1" parent="WIyWlLk6GJQsqaUBKTNV-1" source="SAYkbnVVBiaTuml78bCv-17" target="SAYkbnVVBiaTuml78bCv-0">
          <mxGeometry relative="1" as="geometry" />
        </mxCell>
        <mxCell id="SAYkbnVVBiaTuml78bCv-17" value="endereco" style="ellipse;whiteSpace=wrap;html=1;align=center;" vertex="1" parent="WIyWlLk6GJQsqaUBKTNV-1">
          <mxGeometry x="210" y="395" width="100" height="40" as="geometry" />
        </mxCell>
        <mxCell id="SAYkbnVVBiaTuml78bCv-28" style="edgeStyle=orthogonalEdgeStyle;rounded=0;orthogonalLoop=1;jettySize=auto;html=1;entryX=0.25;entryY=1;entryDx=0;entryDy=0;" edge="1" parent="WIyWlLk6GJQsqaUBKTNV-1" source="SAYkbnVVBiaTuml78bCv-18" target="SAYkbnVVBiaTuml78bCv-0">
          <mxGeometry relative="1" as="geometry" />
        </mxCell>
        <mxCell id="SAYkbnVVBiaTuml78bCv-18" value="bairro" style="ellipse;whiteSpace=wrap;html=1;align=center;" vertex="1" parent="WIyWlLk6GJQsqaUBKTNV-1">
          <mxGeometry x="210" y="455" width="100" height="40" as="geometry" />
        </mxCell>
        <mxCell id="SAYkbnVVBiaTuml78bCv-29" style="edgeStyle=orthogonalEdgeStyle;rounded=0;orthogonalLoop=1;jettySize=auto;html=1;" edge="1" parent="WIyWlLk6GJQsqaUBKTNV-1" source="SAYkbnVVBiaTuml78bCv-19" target="SAYkbnVVBiaTuml78bCv-0">
          <mxGeometry relative="1" as="geometry" />
        </mxCell>
        <mxCell id="SAYkbnVVBiaTuml78bCv-19" value="complemento" style="ellipse;whiteSpace=wrap;html=1;align=center;" vertex="1" parent="WIyWlLk6GJQsqaUBKTNV-1">
          <mxGeometry x="210" y="515" width="100" height="40" as="geometry" />
        </mxCell>
        <mxCell id="SAYkbnVVBiaTuml78bCv-20" value="cidade" style="ellipse;whiteSpace=wrap;html=1;align=center;" vertex="1" parent="WIyWlLk6GJQsqaUBKTNV-1">
          <mxGeometry x="210" y="575" width="100" height="40" as="geometry" />
        </mxCell>
        <mxCell id="SAYkbnVVBiaTuml78bCv-21" value="telefone" style="ellipse;whiteSpace=wrap;html=1;align=center;" vertex="1" parent="WIyWlLk6GJQsqaUBKTNV-1">
          <mxGeometry x="210" y="635" width="100" height="40" as="geometry" />
        </mxCell>
        <mxCell id="SAYkbnVVBiaTuml78bCv-22" value="dtNascimento" style="ellipse;whiteSpace=wrap;html=1;align=center;" vertex="1" parent="WIyWlLk6GJQsqaUBKTNV-1">
          <mxGeometry x="210" y="695" width="100" height="40" as="geometry" />
        </mxCell>
        <mxCell id="SAYkbnVVBiaTuml78bCv-23" value="cpf" style="ellipse;whiteSpace=wrap;html=1;align=center;" vertex="1" parent="WIyWlLk6GJQsqaUBKTNV-1">
          <mxGeometry x="210" y="755" width="100" height="40" as="geometry" />
        </mxCell>
        <mxCell id="SAYkbnVVBiaTuml78bCv-24" value="login" style="ellipse;whiteSpace=wrap;html=1;align=center;" vertex="1" parent="WIyWlLk6GJQsqaUBKTNV-1">
          <mxGeometry x="210" y="815" width="100" height="40" as="geometry" />
        </mxCell>
        <mxCell id="SAYkbnVVBiaTuml78bCv-35" style="edgeStyle=orthogonalEdgeStyle;rounded=0;orthogonalLoop=1;jettySize=auto;html=1;" edge="1" parent="WIyWlLk6GJQsqaUBKTNV-1" source="SAYkbnVVBiaTuml78bCv-25" target="SAYkbnVVBiaTuml78bCv-0">
          <mxGeometry relative="1" as="geometry" />
        </mxCell>
        <mxCell id="SAYkbnVVBiaTuml78bCv-25" value="senha" style="ellipse;whiteSpace=wrap;html=1;align=center;" vertex="1" parent="WIyWlLk6GJQsqaUBKTNV-1">
          <mxGeometry x="210" y="875" width="100" height="40" as="geometry" />
        </mxCell>
        <mxCell id="SAYkbnVVBiaTuml78bCv-30" style="edgeStyle=orthogonalEdgeStyle;rounded=0;orthogonalLoop=1;jettySize=auto;html=1;entryX=0.65;entryY=1.025;entryDx=0;entryDy=0;entryPerimeter=0;" edge="1" parent="WIyWlLk6GJQsqaUBKTNV-1" source="SAYkbnVVBiaTuml78bCv-20" target="SAYkbnVVBiaTuml78bCv-0">
          <mxGeometry relative="1" as="geometry" />
        </mxCell>
        <mxCell id="SAYkbnVVBiaTuml78bCv-31" style="edgeStyle=orthogonalEdgeStyle;rounded=0;orthogonalLoop=1;jettySize=auto;html=1;entryX=0.82;entryY=0.95;entryDx=0;entryDy=0;entryPerimeter=0;" edge="1" parent="WIyWlLk6GJQsqaUBKTNV-1" source="SAYkbnVVBiaTuml78bCv-21" target="SAYkbnVVBiaTuml78bCv-0">
          <mxGeometry relative="1" as="geometry" />
        </mxCell>
        <mxCell id="SAYkbnVVBiaTuml78bCv-32" style="edgeStyle=orthogonalEdgeStyle;rounded=0;orthogonalLoop=1;jettySize=auto;html=1;entryX=0.35;entryY=1.075;entryDx=0;entryDy=0;entryPerimeter=0;" edge="1" parent="WIyWlLk6GJQsqaUBKTNV-1" source="SAYkbnVVBiaTuml78bCv-22" target="SAYkbnVVBiaTuml78bCv-0">
          <mxGeometry relative="1" as="geometry" />
        </mxCell>
        <mxCell id="SAYkbnVVBiaTuml78bCv-33" style="edgeStyle=orthogonalEdgeStyle;rounded=0;orthogonalLoop=1;jettySize=auto;html=1;entryX=0.93;entryY=1.025;entryDx=0;entryDy=0;entryPerimeter=0;" edge="1" parent="WIyWlLk6GJQsqaUBKTNV-1" source="SAYkbnVVBiaTuml78bCv-23" target="SAYkbnVVBiaTuml78bCv-0">
          <mxGeometry relative="1" as="geometry" />
        </mxCell>
        <mxCell id="SAYkbnVVBiaTuml78bCv-34" style="edgeStyle=orthogonalEdgeStyle;rounded=0;orthogonalLoop=1;jettySize=auto;html=1;entryX=0.12;entryY=0.975;entryDx=0;entryDy=0;entryPerimeter=0;" edge="1" parent="WIyWlLk6GJQsqaUBKTNV-1" source="SAYkbnVVBiaTuml78bCv-24" target="SAYkbnVVBiaTuml78bCv-0">
          <mxGeometry relative="1" as="geometry" />
        </mxCell>
        <mxCell id="SAYkbnVVBiaTuml78bCv-46" style="edgeStyle=orthogonalEdgeStyle;rounded=0;orthogonalLoop=1;jettySize=auto;html=1;entryX=0.25;entryY=0;entryDx=0;entryDy=0;" edge="1" parent="WIyWlLk6GJQsqaUBKTNV-1" source="SAYkbnVVBiaTuml78bCv-39" target="SAYkbnVVBiaTuml78bCv-3">
          <mxGeometry relative="1" as="geometry" />
        </mxCell>
        <mxCell id="SAYkbnVVBiaTuml78bCv-39" value="data" style="ellipse;whiteSpace=wrap;html=1;align=center;" vertex="1" parent="WIyWlLk6GJQsqaUBKTNV-1">
          <mxGeometry x="650" y="255" width="100" height="40" as="geometry" />
        </mxCell>
        <mxCell id="SAYkbnVVBiaTuml78bCv-44" style="edgeStyle=orthogonalEdgeStyle;rounded=0;orthogonalLoop=1;jettySize=auto;html=1;exitX=0.5;exitY=0;exitDx=0;exitDy=0;entryX=0.75;entryY=1;entryDx=0;entryDy=0;" edge="1" parent="WIyWlLk6GJQsqaUBKTNV-1" source="SAYkbnVVBiaTuml78bCv-40" target="SAYkbnVVBiaTuml78bCv-3">
          <mxGeometry relative="1" as="geometry" />
        </mxCell>
        <mxCell id="SAYkbnVVBiaTuml78bCv-40" value="hora" style="ellipse;whiteSpace=wrap;html=1;align=center;" vertex="1" parent="WIyWlLk6GJQsqaUBKTNV-1">
          <mxGeometry x="730" y="425" width="100" height="40" as="geometry" />
        </mxCell>
        <mxCell id="SAYkbnVVBiaTuml78bCv-43" style="edgeStyle=orthogonalEdgeStyle;rounded=0;orthogonalLoop=1;jettySize=auto;html=1;" edge="1" parent="WIyWlLk6GJQsqaUBKTNV-1" source="SAYkbnVVBiaTuml78bCv-41" target="SAYkbnVVBiaTuml78bCv-3">
          <mxGeometry relative="1" as="geometry" />
        </mxCell>
        <mxCell id="SAYkbnVVBiaTuml78bCv-41" value="status" style="ellipse;whiteSpace=wrap;html=1;align=center;" vertex="1" parent="WIyWlLk6GJQsqaUBKTNV-1">
          <mxGeometry x="770" y="265" width="100" height="40" as="geometry" />
        </mxCell>
        <mxCell id="SAYkbnVVBiaTuml78bCv-52" style="edgeStyle=orthogonalEdgeStyle;rounded=0;orthogonalLoop=1;jettySize=auto;html=1;" edge="1" parent="WIyWlLk6GJQsqaUBKTNV-1" source="SAYkbnVVBiaTuml78bCv-47" target="SAYkbnVVBiaTuml78bCv-9">
          <mxGeometry relative="1" as="geometry" />
        </mxCell>
        <mxCell id="SAYkbnVVBiaTuml78bCv-47" value="idServiço" style="ellipse;whiteSpace=wrap;html=1;align=center;fontStyle=4;" vertex="1" parent="WIyWlLk6GJQsqaUBKTNV-1">
          <mxGeometry x="1170" y="255" width="100" height="40" as="geometry" />
        </mxCell>
        <mxCell id="SAYkbnVVBiaTuml78bCv-48" value="nome" style="ellipse;whiteSpace=wrap;html=1;align=center;" vertex="1" parent="WIyWlLk6GJQsqaUBKTNV-1">
          <mxGeometry x="1170" y="305" width="100" height="40" as="geometry" />
        </mxCell>
        <mxCell id="SAYkbnVVBiaTuml78bCv-54" value="" style="edgeStyle=orthogonalEdgeStyle;rounded=0;orthogonalLoop=1;jettySize=auto;html=1;" edge="1" parent="WIyWlLk6GJQsqaUBKTNV-1" source="SAYkbnVVBiaTuml78bCv-49" target="SAYkbnVVBiaTuml78bCv-9">
          <mxGeometry relative="1" as="geometry" />
        </mxCell>
        <mxCell id="SAYkbnVVBiaTuml78bCv-49" value="tempo" style="ellipse;whiteSpace=wrap;html=1;align=center;" vertex="1" parent="WIyWlLk6GJQsqaUBKTNV-1">
          <mxGeometry x="1170" y="355" width="100" height="40" as="geometry" />
        </mxCell>
        <mxCell id="SAYkbnVVBiaTuml78bCv-55" style="edgeStyle=orthogonalEdgeStyle;rounded=0;orthogonalLoop=1;jettySize=auto;html=1;entryX=0.75;entryY=1;entryDx=0;entryDy=0;" edge="1" parent="WIyWlLk6GJQsqaUBKTNV-1" source="SAYkbnVVBiaTuml78bCv-50" target="SAYkbnVVBiaTuml78bCv-9">
          <mxGeometry relative="1" as="geometry" />
        </mxCell>
        <mxCell id="SAYkbnVVBiaTuml78bCv-50" value="imagem" style="ellipse;whiteSpace=wrap;html=1;align=center;" vertex="1" parent="WIyWlLk6GJQsqaUBKTNV-1">
          <mxGeometry x="1170" y="405" width="100" height="40" as="geometry" />
        </mxCell>
        <mxCell id="SAYkbnVVBiaTuml78bCv-56" style="edgeStyle=orthogonalEdgeStyle;rounded=0;orthogonalLoop=1;jettySize=auto;html=1;entryX=0.5;entryY=1;entryDx=0;entryDy=0;" edge="1" parent="WIyWlLk6GJQsqaUBKTNV-1" source="SAYkbnVVBiaTuml78bCv-51" target="SAYkbnVVBiaTuml78bCv-9">
          <mxGeometry relative="1" as="geometry" />
        </mxCell>
        <mxCell id="SAYkbnVVBiaTuml78bCv-51" value="tipo" style="ellipse;whiteSpace=wrap;html=1;align=center;" vertex="1" parent="WIyWlLk6GJQsqaUBKTNV-1">
          <mxGeometry x="1170" y="455" width="100" height="40" as="geometry" />
        </mxCell>
        <mxCell id="SAYkbnVVBiaTuml78bCv-53" style="edgeStyle=orthogonalEdgeStyle;rounded=0;orthogonalLoop=1;jettySize=auto;html=1;entryX=0.66;entryY=-0.025;entryDx=0;entryDy=0;entryPerimeter=0;" edge="1" parent="WIyWlLk6GJQsqaUBKTNV-1" source="SAYkbnVVBiaTuml78bCv-48" target="SAYkbnVVBiaTuml78bCv-9">
          <mxGeometry relative="1" as="geometry" />
        </mxCell>
        <mxCell id="SAYkbnVVBiaTuml78bCv-63" style="edgeStyle=orthogonalEdgeStyle;rounded=0;orthogonalLoop=1;jettySize=auto;html=1;entryX=0.5;entryY=1;entryDx=0;entryDy=0;" edge="1" parent="WIyWlLk6GJQsqaUBKTNV-1" source="SAYkbnVVBiaTuml78bCv-57">
          <mxGeometry relative="1" as="geometry">
            <mxPoint x="910" y="395" as="targetPoint" />
          </mxGeometry>
        </mxCell>
        <mxCell id="SAYkbnVVBiaTuml78bCv-57" value="status" style="ellipse;whiteSpace=wrap;html=1;align=center;" vertex="1" parent="WIyWlLk6GJQsqaUBKTNV-1">
          <mxGeometry x="810" y="465" width="100" height="40" as="geometry" />
        </mxCell>
        <mxCell id="SAYkbnVVBiaTuml78bCv-67" style="edgeStyle=orthogonalEdgeStyle;rounded=0;orthogonalLoop=1;jettySize=auto;html=1;entryX=0;entryY=1;entryDx=0;entryDy=0;" edge="1" parent="WIyWlLk6GJQsqaUBKTNV-1" source="SAYkbnVVBiaTuml78bCv-58">
          <mxGeometry relative="1" as="geometry">
            <mxPoint x="880" y="380" as="targetPoint" />
          </mxGeometry>
        </mxCell>
        <mxCell id="SAYkbnVVBiaTuml78bCv-58" value="idProcedimento" style="ellipse;whiteSpace=wrap;html=1;align=center;fontStyle=4;" vertex="1" parent="WIyWlLk6GJQsqaUBKTNV-1">
          <mxGeometry x="810" y="575" width="100" height="40" as="geometry" />
        </mxCell>
        <mxCell id="SAYkbnVVBiaTuml78bCv-64" style="edgeStyle=orthogonalEdgeStyle;rounded=0;orthogonalLoop=1;jettySize=auto;html=1;" edge="1" parent="WIyWlLk6GJQsqaUBKTNV-1" source="SAYkbnVVBiaTuml78bCv-59">
          <mxGeometry relative="1" as="geometry">
            <mxPoint x="910" y="395" as="targetPoint" />
          </mxGeometry>
        </mxCell>
        <mxCell id="SAYkbnVVBiaTuml78bCv-59" value="valor" style="ellipse;whiteSpace=wrap;html=1;align=center;" vertex="1" parent="WIyWlLk6GJQsqaUBKTNV-1">
          <mxGeometry x="920" y="465" width="100" height="40" as="geometry" />
        </mxCell>
        <mxCell id="SAYkbnVVBiaTuml78bCv-65" style="edgeStyle=orthogonalEdgeStyle;rounded=0;orthogonalLoop=1;jettySize=auto;html=1;entryX=1;entryY=1;entryDx=0;entryDy=0;" edge="1" parent="WIyWlLk6GJQsqaUBKTNV-1" source="SAYkbnVVBiaTuml78bCv-60">
          <mxGeometry relative="1" as="geometry">
            <mxPoint x="940" y="380" as="targetPoint" />
          </mxGeometry>
        </mxCell>
        <mxCell id="SAYkbnVVBiaTuml78bCv-60" value="formaPagamento" style="ellipse;whiteSpace=wrap;html=1;align=center;" vertex="1" parent="WIyWlLk6GJQsqaUBKTNV-1">
          <mxGeometry x="860" y="515" width="100" height="40" as="geometry" />
        </mxCell>
        <mxCell id="SAYkbnVVBiaTuml78bCv-66" style="edgeStyle=orthogonalEdgeStyle;rounded=0;orthogonalLoop=1;jettySize=auto;html=1;" edge="1" parent="WIyWlLk6GJQsqaUBKTNV-1" source="SAYkbnVVBiaTuml78bCv-62">
          <mxGeometry relative="1" as="geometry">
            <mxPoint x="910" y="335" as="targetPoint" />
          </mxGeometry>
        </mxCell>
        <mxCell id="SAYkbnVVBiaTuml78bCv-62" value="idServiço" style="ellipse;whiteSpace=wrap;html=1;align=center;fontStyle=4;" vertex="1" parent="WIyWlLk6GJQsqaUBKTNV-1">
          <mxGeometry x="920" y="265" width="100" height="40" as="geometry" />
        </mxCell>
        <mxCell id="SAYkbnVVBiaTuml78bCv-107" style="edgeStyle=orthogonalEdgeStyle;rounded=0;orthogonalLoop=1;jettySize=auto;html=1;exitX=0.5;exitY=1;exitDx=0;exitDy=0;" edge="1" parent="WIyWlLk6GJQsqaUBKTNV-1" source="SAYkbnVVBiaTuml78bCv-78" target="SAYkbnVVBiaTuml78bCv-1">
          <mxGeometry relative="1" as="geometry" />
        </mxCell>
        <mxCell id="SAYkbnVVBiaTuml78bCv-78" value="senha" style="ellipse;whiteSpace=wrap;html=1;align=center;direction=west;flipH=1;flipV=1;" vertex="1" parent="WIyWlLk6GJQsqaUBKTNV-1">
          <mxGeometry x="540" y="1060" width="100" height="40" as="geometry" />
        </mxCell>
        <mxCell id="SAYkbnVVBiaTuml78bCv-99" value="" style="edgeStyle=entityRelationEdgeStyle;fontSize=12;html=1;endArrow=ERmany;startArrow=ERmany;rounded=0;exitX=0;exitY=0.5;exitDx=0;exitDy=0;entryX=0.5;entryY=1;entryDx=0;entryDy=0;" edge="1" parent="WIyWlLk6GJQsqaUBKTNV-1" source="SAYkbnVVBiaTuml78bCv-1" target="SAYkbnVVBiaTuml78bCv-126">
          <mxGeometry width="100" height="100" relative="1" as="geometry">
            <mxPoint x="540" y="735" as="sourcePoint" />
            <mxPoint x="619.9999999999998" y="665" as="targetPoint" />
          </mxGeometry>
        </mxCell>
        <mxCell id="SAYkbnVVBiaTuml78bCv-101" style="edgeStyle=orthogonalEdgeStyle;rounded=0;orthogonalLoop=1;jettySize=auto;html=1;entryX=0.12;entryY=1.125;entryDx=0;entryDy=0;entryPerimeter=0;" edge="1" parent="WIyWlLk6GJQsqaUBKTNV-1" source="SAYkbnVVBiaTuml78bCv-74" target="SAYkbnVVBiaTuml78bCv-1">
          <mxGeometry relative="1" as="geometry" />
        </mxCell>
        <mxCell id="SAYkbnVVBiaTuml78bCv-102" style="edgeStyle=orthogonalEdgeStyle;rounded=0;orthogonalLoop=1;jettySize=auto;html=1;entryX=0.32;entryY=1.075;entryDx=0;entryDy=0;entryPerimeter=0;" edge="1" parent="WIyWlLk6GJQsqaUBKTNV-1" source="SAYkbnVVBiaTuml78bCv-73" target="SAYkbnVVBiaTuml78bCv-1">
          <mxGeometry relative="1" as="geometry" />
        </mxCell>
        <mxCell id="SAYkbnVVBiaTuml78bCv-108" style="edgeStyle=orthogonalEdgeStyle;rounded=0;orthogonalLoop=1;jettySize=auto;html=1;exitX=0.5;exitY=1;exitDx=0;exitDy=0;entryX=0.83;entryY=1.025;entryDx=0;entryDy=0;entryPerimeter=0;" edge="1" parent="WIyWlLk6GJQsqaUBKTNV-1" source="SAYkbnVVBiaTuml78bCv-77" target="SAYkbnVVBiaTuml78bCv-1">
          <mxGeometry relative="1" as="geometry" />
        </mxCell>
        <mxCell id="SAYkbnVVBiaTuml78bCv-121" value="" style="edgeStyle=entityRelationEdgeStyle;fontSize=12;html=1;endArrow=ERoneToMany;rounded=0;entryX=0;entryY=0.5;entryDx=0;entryDy=0;" edge="1" parent="WIyWlLk6GJQsqaUBKTNV-1" source="SAYkbnVVBiaTuml78bCv-3">
          <mxGeometry width="100" height="100" relative="1" as="geometry">
            <mxPoint x="1070" y="690" as="sourcePoint" />
            <mxPoint x="850" y="365" as="targetPoint" />
          </mxGeometry>
        </mxCell>
        <mxCell id="SAYkbnVVBiaTuml78bCv-122" value="" style="edgeStyle=entityRelationEdgeStyle;fontSize=12;html=1;endArrow=ERmandOne;startArrow=ERmandOne;rounded=0;entryX=0;entryY=0.5;entryDx=0;entryDy=0;exitX=1;exitY=0.5;exitDx=0;exitDy=0;" edge="1" parent="WIyWlLk6GJQsqaUBKTNV-1" target="SAYkbnVVBiaTuml78bCv-9">
          <mxGeometry width="100" height="100" relative="1" as="geometry">
            <mxPoint x="970" y="365" as="sourcePoint" />
            <mxPoint x="1150" y="540" as="targetPoint" />
          </mxGeometry>
        </mxCell>
        <mxCell id="SAYkbnVVBiaTuml78bCv-123" value="agenda" style="shape=associativeEntity;whiteSpace=wrap;html=1;align=center;" vertex="1" parent="WIyWlLk6GJQsqaUBKTNV-1">
          <mxGeometry x="480" y="335" width="140" height="60" as="geometry" />
        </mxCell>
        <mxCell id="SAYkbnVVBiaTuml78bCv-124" value="" style="edgeStyle=entityRelationEdgeStyle;fontSize=12;html=1;endArrow=ERmandOne;startArrow=ERmandOne;rounded=0;exitX=0.5;exitY=1;exitDx=0;exitDy=0;" edge="1" parent="WIyWlLk6GJQsqaUBKTNV-1" source="SAYkbnVVBiaTuml78bCv-123" target="SAYkbnVVBiaTuml78bCv-126">
          <mxGeometry width="100" height="100" relative="1" as="geometry">
            <mxPoint x="500" y="610" as="sourcePoint" />
            <mxPoint x="591.8600000000001" y="633.2" as="targetPoint" />
          </mxGeometry>
        </mxCell>
        <mxCell id="SAYkbnVVBiaTuml78bCv-126" value="validar" style="shape=rhombus;perimeter=rhombusPerimeter;whiteSpace=wrap;html=1;align=center;" vertex="1" parent="WIyWlLk6GJQsqaUBKTNV-1">
          <mxGeometry x="490" y="505" width="120" height="60" as="geometry" />
        </mxCell>
        <mxCell id="SAYkbnVVBiaTuml78bCv-127" value="" style="edgeStyle=entityRelationEdgeStyle;fontSize=12;html=1;endArrow=ERmany;startArrow=ERmany;rounded=0;entryX=0.5;entryY=1;entryDx=0;entryDy=0;exitX=0.5;exitY=0;exitDx=0;exitDy=0;" edge="1" parent="WIyWlLk6GJQsqaUBKTNV-1" source="SAYkbnVVBiaTuml78bCv-1" target="SAYkbnVVBiaTuml78bCv-129">
          <mxGeometry width="100" height="100" relative="1" as="geometry">
            <mxPoint x="1170" y="865" as="sourcePoint" />
            <mxPoint x="1170" y="575" as="targetPoint" />
          </mxGeometry>
        </mxCell>
        <mxCell id="SAYkbnVVBiaTuml78bCv-129" value="realiza" style="shape=rhombus;perimeter=rhombusPerimeter;whiteSpace=wrap;html=1;align=center;" vertex="1" parent="WIyWlLk6GJQsqaUBKTNV-1">
          <mxGeometry x="610" y="625" width="120" height="60" as="geometry" />
        </mxCell>
        <mxCell id="SAYkbnVVBiaTuml78bCv-130" value="" style="edgeStyle=entityRelationEdgeStyle;fontSize=12;html=1;endArrow=ERmandOne;startArrow=ERmandOne;rounded=0;entryX=0.25;entryY=1;entryDx=0;entryDy=0;exitX=0.5;exitY=0;exitDx=0;exitDy=0;" edge="1" parent="WIyWlLk6GJQsqaUBKTNV-1" source="SAYkbnVVBiaTuml78bCv-129" target="SAYkbnVVBiaTuml78bCv-3">
          <mxGeometry width="100" height="100" relative="1" as="geometry">
            <mxPoint x="810" y="845" as="sourcePoint" />
            <mxPoint x="910" y="670" as="targetPoint" />
          </mxGeometry>
        </mxCell>
        <mxCell id="SAYkbnVVBiaTuml78bCv-131" value="prestado" style="shape=associativeEntity;whiteSpace=wrap;html=1;align=center;" vertex="1" parent="WIyWlLk6GJQsqaUBKTNV-1">
          <mxGeometry x="850" y="335" width="140" height="60" as="geometry" />
        </mxCell>
        <mxCell id="SAYkbnVVBiaTuml78bCv-133" value="" style="edgeStyle=orthogonalEdgeStyle;rounded=0;orthogonalLoop=1;jettySize=auto;html=1;" edge="1" parent="WIyWlLk6GJQsqaUBKTNV-1" source="SAYkbnVVBiaTuml78bCv-132" target="SAYkbnVVBiaTuml78bCv-123">
          <mxGeometry relative="1" as="geometry" />
        </mxCell>
        <mxCell id="SAYkbnVVBiaTuml78bCv-132" value="idAgendamento" style="ellipse;whiteSpace=wrap;html=1;align=center;fontStyle=4;" vertex="1" parent="WIyWlLk6GJQsqaUBKTNV-1">
          <mxGeometry x="460" y="425" width="100" height="40" as="geometry" />
        </mxCell>
        <mxCell id="SAYkbnVVBiaTuml78bCv-135" style="edgeStyle=orthogonalEdgeStyle;rounded=0;orthogonalLoop=1;jettySize=auto;html=1;entryX=1;entryY=1;entryDx=0;entryDy=0;" edge="1" parent="WIyWlLk6GJQsqaUBKTNV-1" source="SAYkbnVVBiaTuml78bCv-134" target="SAYkbnVVBiaTuml78bCv-131">
          <mxGeometry relative="1" as="geometry" />
        </mxCell>
        <mxCell id="SAYkbnVVBiaTuml78bCv-134" value="idPrestado" style="ellipse;whiteSpace=wrap;html=1;align=center;fontStyle=4;" vertex="1" parent="WIyWlLk6GJQsqaUBKTNV-1">
          <mxGeometry x="980" y="415" width="100" height="40" as="geometry" />
        </mxCell>
      </root>
    </mxGraphModel>
  </diagram>
</mxfile>
